<svg width="64" height="64" viewBox="0 0 64 64" fill="none" xmlns="http://www.w3.org/2000/svg">
<path opacity="0.108551" fill-rule="evenodd" clip-rule="evenodd" d="M31.2601 59.6951V57.7747V52.2691C23.3108 47.4247 18.8482 44.3968 17.8722 43.1854C16.9585 42.0514 12.8536 34.2203 21.63 35.5732C21.9847 35.6278 30.0192 39.6402 31.2601 39.6402C31.9741 39.6402 32.1616 37.1626 31.8225 32.2073L55.87 19.5854V46.0527L49.7229 49.6724L48.987 37.8159C48.6344 35.9573 47.9726 35.0279 47.0017 35.0279C45.5453 35.0279 41.3111 35.6608 40.1923 39.228C39.4464 41.6062 39.3405 46.84 39.8745 54.9296L31.2601 59.6951Z" fill="#FD675A"/>
<path d="M55.87 18.7439V45.5341L48.7427 49.9118C48.7427 42.494 48.7427 38.4206 48.7427 37.6915C48.7427 36.5979 47.0426 33.7614 43.7337 35.1527C41.5277 36.0803 40.1758 37.8653 39.6782 40.5078V54.9025L32.2494 59.6951" stroke="#FD675A" stroke-width="2.835" stroke-linecap="round" stroke-linejoin="round"/>
<path fill-rule="evenodd" clip-rule="evenodd" d="M7.8239 18.6256L7.82025 45.9254L31.7183 59.6434L31.7768 51.7762L19.8383 45.0725C17.4593 43.4765 16.0375 41.909 15.573 40.3697C14.8763 38.0608 15.6984 35.3869 17.8925 34.6502C20.0866 33.9135 21.7534 35.1907 23.406 36.0875C24.5077 36.6853 27.3302 38.2776 31.8733 40.8642V32.2953" fill="#FFBB00" fill-opacity="0.141287"/>
<path d="M7.8239 18.6256L7.82025 45.9254L31.7183 59.6434L31.7768 51.7762L19.8383 45.0725C17.4593 43.4765 16.0375 41.909 15.573 40.3697C14.8763 38.0608 15.6984 35.3869 17.8925 34.6502C20.0866 33.9135 21.7534 35.1907 23.406 36.0875C24.5077 36.6853 27.3302 38.2776 31.8733 40.8642V32.2953" stroke="#FFBB00" stroke-width="2.835" stroke-linecap="round" stroke-linejoin="round"/>
<path fill-rule="evenodd" clip-rule="evenodd" d="M55.87 18.9177L47.6083 14.1817C41.4304 17.6729 37.3894 19.923 35.4852 20.9322C32.629 22.4459 28.8084 22.7421 26.6707 21.312C24.533 19.882 24.5762 17.191 26.6707 15.7299C28.067 14.7558 32.0064 12.4961 38.4889 8.95099L31.8225 5L7.77512 18.6107L31.8225 32.2073" fill="#31A0FE" fill-opacity="0.0967019"/>
<path d="M55.87 18.9177L47.6083 14.1817C41.4304 17.6729 37.3894 19.923 35.4852 20.9322C32.629 22.4459 28.8084 22.7421 26.6707 21.312C24.533 19.882 24.5762 17.191 26.6707 15.7299C28.067 14.7558 32.0064 12.4961 38.4889 8.95099L31.8225 5L7.77512 18.6107L31.8225 32.2073" stroke="#31A0FE" stroke-width="2.835" stroke-linejoin="round"/>
<path d="M31.9648 32.2073L55.87 18.7439" stroke="#FD675A" stroke-width="2.835" stroke-linecap="round" stroke-linejoin="round"/>
<path d="M31.9648 31.9268V39.2195" stroke="#FFBB00" stroke-width="2.835" stroke-linecap="round"/>
</svg>
